<svg width="200" height="240" viewBox="0 0 195 240" fill="none" xmlns="http://www.w3.org/2000/svg">
<path d="M193.721 229.196C193.264 229.305 192.746 229.204 192.391 228.888C186.972 224.11 181.7 219.091 176.721 213.972C176.24 213.48 176.313 212.741 176.89 212.324C177.467 211.908 178.318 211.972 178.801 212.47C183.739 217.544 188.959 222.515 194.33 227.249C194.851 227.714 194.841 228.45 194.31 228.904C194.138 229.048 193.937 229.145 193.721 229.196Z" fill="black" style="fill:black;fill:black;fill-opacity:1;"/>
<path d="M193.262 229.366C193.105 229.403 192.941 229.418 192.774 229.403C162.936 226.925 133.175 215.849 108.966 198.215C88.581 183.366 72.8492 164.388 63.7154 143.864C49.6648 143.471 35.3117 138.217 24.321 129.111C11.9338 118.85 3.62414 103.894 0.918815 86.9904C-4.31397 54.2458 13.1544 19.3741 44.3888 0.217C45.0002 -0.15911 45.8495 -0.03362 46.279 0.495166C46.7151 1.0224 46.5694 1.75483 45.9561 2.1253C15.5208 20.7889 -1.502 54.7657 3.59529 86.6688C6.21856 103.052 14.2398 117.525 26.1874 127.422C36.4115 135.892 49.6495 140.871 62.6794 141.483C61.3936 138.41 60.2582 135.3 59.2786 132.172C55.2033 119.169 54.4912 108.21 57.12 98.6776C60.4487 86.5816 69.7468 76.7597 81.3897 73.0357C94.6341 68.7971 110.642 73.6814 116.335 83.6908C118.965 88.3069 119.739 94.1356 118.645 101.01C115.373 121.55 97.1325 139.229 75.2622 143.051C72.431 143.549 69.5343 143.82 66.6249 143.875C75.644 163.711 90.9477 182.032 110.709 196.429C134.497 213.757 163.739 224.641 193.03 227.079C193.774 227.139 194.323 227.712 194.247 228.355C194.195 228.853 193.787 229.247 193.257 229.373L193.262 229.366ZM65.5987 141.547C68.6837 141.535 71.7387 141.275 74.7238 140.752C75.7095 140.578 76.6862 140.376 77.6539 140.146C97.1057 135.516 112.984 119.34 115.959 100.684C116.979 94.283 116.287 88.9081 113.899 84.7196C108.789 75.7424 94.3401 71.3972 82.3299 75.2268C71.5284 78.6777 62.8807 87.8715 59.7613 99.2139C57.2484 108.361 57.9449 118.941 61.9041 131.559C62.9577 134.919 64.1932 138.253 65.5987 141.547Z" fill="black" style="fill:black;fill:black;fill-opacity:1;"/>
<path d="M175.707 239.242C175.223 239.357 174.685 239.237 174.328 238.891C173.835 238.407 173.887 237.667 174.446 237.237C179.474 233.4 185.195 230.388 191.445 228.282C191.883 228.135 192.372 227.97 192.521 227.777C192.941 227.24 193.784 227.106 194.407 227.468C195.029 227.829 195.184 228.557 194.765 229.093C194.145 229.884 193.154 230.217 192.431 230.462C186.479 232.467 181.029 235.336 176.244 238.987C176.086 239.109 175.901 239.19 175.705 239.237L175.707 239.242Z" fill="black" style="fill:black;fill:black;fill-opacity:1;"/>
</svg>
