<svg width="348" height="321" viewBox="0 0 348 321" fill="none" xmlns="http://www.w3.org/2000/svg">
<path d="M36.1333 62.2184C44.6937 52.5643 56.5083 45.4036 69.4943 41.822C74.7046 40.4076 80.3462 39.2258 85.7734 41.1389C92.5485 43.4847 95.3505 50.5457 95.7265 56.7077C96.3794 66.8778 89.5348 76.1099 78.3145 77.7102C75.2808 78.0285 72.3278 77.9244 69.4424 76.6548C64.7917 74.4969 63.7233 69.6857 65.1957 65.439C67.6365 57.4594 73.6559 50.5676 80.9119 45.9345C89.8523 40.2043 100.533 38.0638 111.014 37.5733C123.393 36.9747 136.548 38.0978 147.358 44.2472C151.276 46.5359 154.726 49.5288 156.987 53.0757C157.209 53.4242 157.083 53.8732 156.705 54.0781C156.451 54.216 156.148 54.2087 155.909 54.083C154.04 53.1418 152.181 52.3457 150.301 51.7051C144.784 49.8194 138.942 49.2136 133.122 49.2451C121.864 49.4551 109.673 51.4512 98.7394 54.246C90.2252 56.589 81.6256 60.3985 77.6048 67.9903C77.6048 67.9903 77.1343 68.9924 77.1343 68.9924C76.9955 69.2718 76.9443 69.5595 76.9233 69.2603C76.8363 68.2888 75.9221 66.9702 74.8661 66.7292C77.671 67.6377 80.9485 66.3229 82.96 64.4011C85.8741 61.5154 86.5861 57.2009 85.9016 53.3959C85.3778 50.327 84.1469 47.8917 80.5873 47.2414C76.6884 46.4779 72.0166 47.3696 68.0682 48.1565C60.648 49.7541 53.5448 52.46 47.0909 56.2516C43.6124 58.2685 40.3286 60.6031 37.2519 63.1876C36.6021 63.758 35.5218 62.935 36.1333 62.2184Z" fill="#DFE5E4"/>
<path d="M104.579 261.957C108.345 270.14 113.663 276.931 120.634 283.07C136.859 297.358 159.741 303.815 182.15 304.753C204.558 305.692 226.824 301.608 248.764 297.294C256.688 295.737 264.663 294.129 272.1 291.163C290.529 283.813 308.071 268.165 320.739 253.797C301.473 250.767 139.451 256.972 119.923 256.232" fill="#48A8E2"/>
<path d="M103.958 262.292C110.012 275.349 120.936 286.111 134.175 293.253C147.341 300.355 162.466 304.006 177.594 305.15C195.647 306.515 213.787 304.308 231.504 301.216C240.446 299.655 249.418 298.02 258.254 296.002C266.36 294.151 274.062 291.489 281.274 287.583C295.193 280.046 307.162 269.492 317.633 258.255C318.857 256.941 320.061 255.61 321.248 254.266C321.551 253.923 321.518 253.249 320.93 253.157C317.793 252.668 314.562 252.599 311.39 252.499C306.061 252.331 300.727 252.299 295.396 252.295C288.399 252.289 281.401 252.351 274.405 252.439C266.273 252.541 258.142 252.682 250.012 252.842C241.278 253.013 232.545 253.207 223.812 253.412C215.009 253.619 206.205 253.838 197.402 254.06C189.061 254.27 180.719 254.484 172.378 254.694C165.03 254.878 157.682 255.059 150.333 255.224C144.511 255.354 138.689 255.477 132.866 255.56C129.102 255.613 125.334 255.671 121.57 255.61C121.021 255.602 120.472 255.589 119.924 255.569C118.998 255.534 118.999 256.861 119.924 256.896C123.098 257.015 126.284 256.962 129.46 256.929C134.799 256.874 140.137 256.769 145.475 256.657C152.492 256.509 159.509 256.34 166.525 256.167C174.668 255.966 182.811 255.757 190.954 255.55C199.651 255.329 208.349 255.11 217.046 254.9C225.847 254.688 234.649 254.485 243.451 254.302C251.749 254.129 260.048 253.973 268.347 253.85C275.688 253.741 283.03 253.656 290.373 253.629C296.186 253.608 302.002 253.616 307.814 253.734C311.555 253.811 315.318 253.884 319.041 254.252C319.698 254.317 319.918 254.339 320.548 254.437C320.442 254.067 320.336 253.698 320.23 253.328C310.221 264.661 298.837 275.309 285.635 283.483C278.958 287.617 271.821 290.959 264.121 293.14C255.724 295.518 247.007 297.003 238.408 298.615C220.6 301.951 202.496 304.675 184.263 304.164C169.092 303.739 153.785 300.913 140.112 294.692C126.567 288.53 114.796 278.81 107.681 266.429C106.779 264.86 105.957 263.255 105.201 261.622C104.838 260.839 103.598 261.515 103.958 262.292Z" fill="#45A8E5"/>
<path d="M145.926 222.156C135.903 244.426 120.444 284.832 114.086 308.22C180.684 314.306 249.416 317.584 313.132 298.7C307.516 280.915 283.646 227.87 281.488 222.156C270.188 192.241 278.77 224.15 263.877 195.605" fill="#231F20"/>
<path d="M145.232 221.98C140.449 232.616 136.081 243.414 131.876 254.255C127.216 266.269 122.776 278.362 118.737 290.566C116.821 296.355 114.991 302.173 113.392 308.044C113.269 308.495 113.619 308.842 114.086 308.884C127.183 310.08 140.293 311.163 153.424 311.992C166.514 312.819 179.625 313.395 192.745 313.577C205.867 313.76 219 313.547 232.1 312.785C245.001 312.035 257.872 310.749 270.625 308.79C283.49 306.815 296.235 304.145 308.721 300.663C310.259 300.234 311.793 299.792 313.323 299.34C313.689 299.232 313.938 298.88 313.825 298.523C311.183 290.179 307.735 282.03 304.38 273.914C300.213 263.833 295.9 253.803 291.559 243.785C288.63 237.023 285.618 230.287 282.79 223.488C281.174 219.603 279.823 215.629 278.071 211.79C277.551 210.65 277.035 209.442 276.25 208.428C275.875 207.943 275.375 207.438 274.674 207.445C274.222 207.449 273.865 207.686 273.496 207.892C273.416 207.937 273.185 208.058 273.405 207.949C273.33 207.986 272.986 208.05 273.268 208.002C273.028 208.043 272.996 207.993 272.885 207.941C272.125 207.585 271.401 206.694 270.824 205.941C269.391 204.068 268.206 202.029 267.058 200C266.174 198.438 265.328 196.857 264.498 195.27C264.096 194.501 262.855 195.173 263.256 195.94C264.733 198.765 266.247 201.586 267.977 204.289C268.842 205.64 269.756 207.037 270.936 208.18C271.931 209.145 273.051 209.662 274.369 208.954C274.501 208.883 274.844 208.659 274.651 208.788C274.757 208.717 274.663 208.799 274.635 208.757C274.743 208.923 274.603 208.703 274.783 208.86C274.952 209.007 274.95 209.026 275.007 209.098C275.312 209.48 275.553 209.909 275.784 210.331C277.959 214.302 279.321 218.649 280.981 222.811C283.421 228.931 286.186 234.951 288.813 241.004C293.098 250.877 297.361 260.758 301.503 270.682C305.09 279.277 308.713 287.894 311.714 296.682C311.963 297.411 312.205 298.142 312.438 298.876L312.94 298.06C300.567 301.719 287.928 304.577 275.145 306.723C262.315 308.876 249.351 310.315 236.346 311.191C223.388 312.065 210.391 312.384 197.4 312.298C184.282 312.212 171.171 311.713 158.08 310.948C144.998 310.184 131.937 309.152 118.89 307.991C117.288 307.848 115.687 307.703 114.085 307.557C114.317 307.837 114.548 308.117 114.779 308.397C117.819 297.237 121.597 286.243 125.519 275.323C129.871 263.208 134.494 251.173 139.392 239.236C141.716 233.572 144.103 227.928 146.619 222.333C146.974 221.545 145.582 221.201 145.232 221.98Z" fill="#231F20"/>
<path d="M214.078 108.841C201.757 83.5755 189.394 54.2139 202.335 29.2136C205.204 23.6719 210.336 18.1124 216.991 18.2643C226.41 18.4793 230.733 29.31 230.809 38.0005C230.944 53.364 225.718 68.3212 219.729 82.6576C192.569 147.671 149.016 205.617 104.579 261.957C175.164 280.253 252.011 277.352 320.739 253.797C284.995 220.278 248.994 165.525 211.655 100.789C200.29 81.0857 232.952 153.719 225.464 132.495" fill="#EA5B74"/>
<path d="M214.7 108.506C209.081 96.9752 203.72 85.2313 200.445 72.9219C197.305 61.1231 196.169 48.5697 199.956 36.7758C201.71 31.3108 204.359 25.481 209.193 21.7165C213.395 18.4451 219.303 17.8697 223.539 21.3929C227.194 24.4332 228.919 29.136 229.683 33.502C230.72 39.4246 229.941 45.7521 228.897 51.6255C226.586 64.6291 221.472 77.0784 216.14 89.2451C210.919 101.156 205.139 112.856 198.92 124.35C186.512 147.283 172.359 169.38 157.273 190.893C142.18 212.415 126.148 233.363 109.858 254.124C107.895 256.626 105.928 259.125 103.958 261.622C103.679 261.976 103.977 262.491 104.388 262.597C131.997 269.734 160.556 273.67 189.216 274.388C217.873 275.106 246.632 272.615 274.637 266.959C290.361 263.784 305.838 259.598 320.93 254.437C321.429 254.267 321.651 253.707 321.248 253.328C304.34 237.451 289.801 219.505 276.308 201.1C259.993 178.844 245.185 155.664 231.003 132.208C227.187 125.899 223.421 119.563 219.694 113.209C216.866 108.389 214.204 103.465 211.24 98.7148C210.879 98.137 210.213 96.6729 209.299 96.7001C208.062 96.7369 208.619 98.2987 208.809 98.9223C209.912 102.548 211.515 106.076 213.005 109.576C215.123 114.551 217.326 119.496 219.596 124.413C221.279 128.058 222.932 131.746 224.896 135.273C225.197 135.814 225.704 137.094 226.534 137.087C227.825 137.076 227.143 135.328 226.961 134.725C226.717 133.917 226.438 133.117 226.157 132.319C225.873 131.51 224.483 131.856 224.77 132.672C225.051 133.47 225.329 134.269 225.573 135.078C225.642 135.304 225.71 135.53 225.767 135.759C225.811 135.932 225.97 136.295 225.863 136.16C225.877 136.178 225.856 136.286 225.872 136.294C225.7 136.212 226.458 135.767 226.534 135.759C226.518 135.761 227.039 135.86 226.944 135.897C226.889 135.918 226.898 135.78 226.932 135.892C226.834 135.57 226.472 135.19 226.3 134.89C224.485 131.721 222.993 128.376 221.461 125.085C217.587 116.764 213.614 108.354 210.583 99.7315C210.4 99.2094 210.216 98.6843 210.074 98.1509C210.03 97.9874 210.001 97.82 209.957 97.6571C209.935 97.5785 210.013 97.5843 209.929 97.6268C209.792 97.6961 209.573 97.9491 209.227 98.0162C209.101 98.0407 208.942 97.9071 208.943 97.9048C208.931 97.9341 209.198 98.1925 209.133 98.1039C209.479 98.5757 209.798 99.0603 210.103 99.5556C212.921 104.125 215.493 108.834 218.205 113.458C221.853 119.681 225.538 125.886 229.27 132.067C242.868 154.588 257.041 176.85 272.546 198.307C285.415 216.117 299.206 233.513 315.009 249.223C316.723 250.927 318.464 252.608 320.23 254.267C320.336 253.897 320.442 253.527 320.548 253.157C293.709 262.336 265.645 268.411 237.19 271.265C208.867 274.105 180.16 273.801 151.922 270.297C136.002 268.321 120.238 265.316 104.771 261.317L105.2 262.292C122.2 240.737 139.005 219.037 154.856 196.744C170.574 174.639 185.363 151.94 198.341 128.359C204.772 116.672 210.751 104.772 216.173 92.656C221.771 80.1464 227.214 67.3478 229.903 53.9938C231.13 47.8977 232.035 41.417 231.364 35.2166C230.876 30.7115 229.465 26.0191 226.447 22.3741C223.561 18.8897 219.104 16.9113 214.332 17.8345C208.651 18.9331 204.556 23.695 202.062 28.2272C189.38 51.2726 199.154 78.404 209.342 100.525C210.677 103.424 212.058 106.304 213.457 109.176C213.836 109.954 215.076 109.279 214.7 108.506Z" fill="#EA5C74"/>
<path d="M211.655 100.789C183.808 120.868 157.217 143.765 129.37 163.844C122.361 224.898 141.406 159.261 155.844 99.721C145.289 96.1657 134.364 93.5419 123.269 91.8972C108.084 114.45 95.9104 138.726 87.11 164.003C82.5825 177.007 78.9127 190.649 80.626 204.215C82.3393 217.782 90.3906 231.36 103.869 237.014C117.362 242.674 133.73 239.348 146.054 231.752C158.379 224.155 167.397 212.864 175.695 201.535C187.847 184.946 199.118 167.589 206.126 148.641" fill="#EA5B74"/>
<path d="M211.146 100.32C202.883 106.281 194.79 112.44 186.77 118.677C178.735 124.926 170.771 131.254 162.777 137.547C154.806 143.823 146.804 150.066 138.669 156.16C136.619 157.695 134.561 159.222 132.492 160.736C131.48 161.477 130.465 162.216 129.448 162.951C128.923 163.331 128.695 163.484 128.621 164.104C128.556 164.654 128.496 165.204 128.436 165.755C128.029 169.427 127.661 173.105 127.406 176.79C127.242 179.177 127.107 181.573 127.162 183.966C127.19 185.194 127.191 186.554 127.628 187.731C127.918 188.51 128.636 189.222 129.585 188.767C130.416 188.367 130.927 187.412 131.338 186.68C133.299 183.179 134.548 179.286 135.825 175.542C137.951 169.308 139.836 163.004 141.66 156.691C143.95 148.764 146.115 140.807 148.217 132.836C150.538 124.039 152.776 115.223 154.95 106.394C155.484 104.229 156.013 102.064 156.538 99.8974C156.628 99.5258 156.417 99.2091 156.036 99.0812C145.472 95.5325 134.559 92.9116 123.46 91.2573C123.133 91.2085 122.83 91.2919 122.648 91.5623C116.608 100.541 111.038 109.786 105.971 119.263C100.92 128.711 96.3637 138.385 92.3228 148.238C88.18 158.339 84.2998 168.667 81.7932 179.23C79.4062 189.29 78.4054 199.905 81.0092 210.018C83.1233 218.229 87.5451 226.159 94.3258 231.916C101.493 238.002 110.928 240.907 120.62 240.476C130.778 240.025 140.564 236.347 148.717 230.84C157.304 225.039 164.248 217.499 170.473 209.6C177.007 201.31 183.109 192.674 188.783 183.862C194.545 174.912 199.756 165.645 203.946 155.972C204.969 153.61 205.927 151.224 206.82 148.818C207.12 148.008 205.731 147.66 205.433 148.465C201.833 158.167 197.111 167.478 191.737 176.446C186.381 185.382 180.398 193.99 174.171 202.428C168.279 210.413 162.023 218.281 154.307 224.866C146.866 231.217 138.051 236.15 128.085 238.206C118.542 240.175 108.316 239.255 99.9847 234.299C92.3511 229.759 86.9928 222.468 83.9912 214.655C80.4271 205.378 80.298 195.358 81.9284 185.713C83.7059 175.198 87.3306 164.974 91.1768 154.968C94.9361 145.189 99.2043 135.578 103.964 126.176C108.71 116.804 113.939 107.64 119.63 98.7275C121.023 96.5471 122.444 94.3824 123.89 92.2321L123.078 92.5371C134.176 94.1913 145.089 96.8122 155.653 100.361L155.151 99.5446C152.393 110.914 149.535 122.262 146.54 133.58C143.909 143.527 141.187 153.457 138.213 163.322C136.209 169.972 134.21 176.696 131.473 183.129C131.089 184.029 130.685 184.924 130.217 185.79C130.04 186.117 129.854 186.44 129.648 186.752C129.568 186.873 129.484 186.991 129.399 187.109C129.361 187.161 129.32 187.212 129.279 187.263C129.249 187.3 129.335 187.211 129.217 187.33C129.145 187.403 129.073 187.473 128.996 187.542C128.948 187.584 128.856 187.692 129.01 187.537C128.986 187.561 128.91 187.576 128.896 187.603C128.908 187.58 128.939 187.583 129.008 187.584C128.86 187.581 129.163 187.628 129.144 187.628C129.099 187.627 129.203 187.742 129.114 187.594C129.24 187.803 129.085 187.544 129.052 187.469C128.989 187.328 129.107 187.61 129.046 187.455C129.025 187.403 129.003 187.35 128.987 187.296C128.946 187.163 128.906 187.031 128.874 186.897C128.42 185.003 128.564 182.596 128.641 180.529C128.796 176.362 129.191 172.202 129.626 168.053C129.774 166.649 129.929 165.246 130.09 163.844C130.02 164 129.949 164.157 129.879 164.313C140.834 156.41 151.488 148.16 162.073 139.84C172.707 131.481 183.274 123.047 194.014 114.803C199.996 110.211 206.034 105.681 212.164 101.258C212.892 100.733 211.868 99.7996 211.146 100.32Z" fill="#EA5C74"/>
<path d="M137.04 88.8334C136.408 83.3467 137.403 77.8379 139.352 72.6493C141.315 67.4242 144.251 62.5617 147.482 57.922C149.31 55.2972 151.241 52.7348 153.181 50.1799C153.713 49.4789 152.467 48.815 151.939 49.5101C148.447 54.1067 144.978 58.7389 142.103 63.6938C139.242 68.6235 136.964 73.9014 135.967 79.4372C135.408 82.5427 135.24 85.6996 135.601 88.8334C135.643 89.1897 135.903 89.497 136.321 89.497C136.678 89.497 137.082 89.192 137.04 88.8334Z" fill="#231F20"/>
<path d="M158.465 48.2129C156.856 51.717 155.132 55.175 153.296 58.5823C152.885 59.3448 154.125 60.0178 154.538 59.2522C156.375 55.8448 158.099 52.3868 159.707 48.8827C159.859 48.553 159.814 48.1719 159.449 47.9748C159.147 47.812 158.617 47.881 158.465 48.2129Z" fill="#231F20"/>
<path d="M165.595 47.7088C163.097 51.9617 161.13 56.4757 159.749 61.142C159.505 61.967 160.893 62.319 161.137 61.4948C162.486 56.9346 164.396 52.535 166.838 48.3787C167.279 47.6276 166.037 46.9568 165.595 47.7088Z" fill="#231F20"/>
<path d="M171.618 50.9903C169.454 54.5248 167.766 58.303 166.605 62.2184C166.36 63.0434 167.748 63.3954 167.992 62.5713C169.122 58.7608 170.754 55.1 172.86 51.6601C173.316 50.9155 172.074 50.2458 171.618 50.9903Z" fill="#231F20"/>
<path d="M175.447 55.9133C173.542 62.6545 171.645 69.3978 169.731 76.1367C168.076 81.9616 166.224 88.0369 161.877 92.697C159.755 94.9721 157.106 96.8569 154.004 97.8318C153.132 98.1056 153.506 99.388 154.386 99.1115C160.357 97.2352 164.619 92.5135 167.201 87.3691C168.691 84.4004 169.729 81.2666 170.651 78.1144C171.635 74.7514 172.565 71.3744 173.517 68.0038C174.623 64.0913 175.729 60.1787 176.835 56.2661C177.068 55.439 175.681 55.0861 175.447 55.9133Z" fill="#231F20"/>
<path d="M147.796 92.6958C147.316 88.1669 149.51 83.6342 153.299 80.7592C154.34 79.9691 155.528 79.3109 156.778 78.8441C157.237 78.6725 157.417 78.2921 157.208 77.8693C156.328 76.0956 155.54 74.2337 155.036 72.3363C154.847 71.6267 154.687 70.7253 155.209 70.0966C155.651 69.5632 156.438 69.3928 157.131 69.4263C158.929 69.5133 160.38 71.1376 161.477 72.2871C162.743 73.6139 163.855 75.0798 164.666 76.6855C165.551 78.4379 165.979 80.352 165.748 82.2811C165.705 82.6379 166.109 82.9447 166.467 82.9447C166.892 82.9447 167.144 82.6389 167.187 82.2811C167.678 78.1764 165.341 74.3308 162.494 71.3486C161.116 69.9055 159.456 68.2736 157.25 68.1066C156.278 68.033 155.276 68.2891 154.519 68.8618C153.686 69.4928 153.362 70.5116 153.435 71.4781C153.523 72.6515 153.973 73.8021 154.384 74.9061C154.844 76.1409 155.377 77.3519 155.965 78.5391C156.108 78.2141 156.252 77.8892 156.395 77.5643C151.42 79.4226 147.688 83.6601 146.613 88.5059C146.307 89.8837 146.209 91.2955 146.357 92.6958C146.395 93.0525 146.661 93.3594 147.076 93.3594C147.436 93.3594 147.834 93.0547 147.796 92.6958Z" fill="#231F20"/>
<path d="M91.6566 166.145C94.5672 170.215 97.5176 174.267 100.656 178.191C102.351 180.31 104.071 182.511 106.141 184.339C106.86 184.974 108.367 186.272 109.36 185.295C110.263 184.405 109.61 182.542 109.338 181.546C108.683 179.138 107.732 176.794 106.774 174.478C105.329 170.985 103.759 167.537 102.154 164.105C97.8162 154.833 93.1785 145.68 88.4627 136.567C82.8942 125.807 77.1808 115.11 71.3711 104.459C70.6406 103.12 69.9084 101.781 69.1747 100.444C69.0404 100.199 68.6465 100.046 68.3622 100.139C57.7028 103.607 47.4082 107.999 37.646 113.255C37.4495 113.361 37.2574 113.606 37.2897 113.828C38.5593 122.574 40.1983 131.271 42.2272 139.895C44.2521 148.501 46.6551 157.031 49.4288 165.458C52.2161 173.925 55.3776 182.288 58.9053 190.518C62.0629 197.884 65.5249 205.181 69.9846 211.966C74.3348 218.585 79.6771 224.774 86.3462 229.527C92.655 234.024 100.124 237.332 108.031 238.501C115.7 239.634 123.532 238.623 130.419 235.258C136.964 232.061 142.323 227.042 146.31 221.33C150.721 215.01 153.362 207.837 154.67 200.444C156.207 191.761 156.03 182.918 155.326 174.171C155.154 172.034 154.95 169.9 154.732 167.767C154.646 166.924 153.206 166.915 153.293 167.767C154.168 176.33 154.821 184.961 154.114 193.557C153.473 201.354 151.664 209.16 147.838 216.18C144.573 222.172 139.956 227.666 134.035 231.615C127.942 235.678 120.682 237.832 113.151 237.63C105.321 237.421 97.7037 234.861 91.1304 231.013C84.1801 226.943 78.4921 221.321 73.8661 215.08C69.0943 208.642 65.3944 201.578 62.1505 194.394C58.6168 186.568 55.4761 178.583 52.6534 170.516C49.7781 162.299 47.2575 153.976 45.099 145.574C42.9405 137.172 41.1441 128.691 39.7174 120.157C39.3651 118.051 39.0352 115.941 38.7285 113.828L38.3722 114.401C48.0286 109.202 58.2004 104.85 68.7447 101.418L67.9323 101.113C73.6402 111.521 79.2562 121.971 84.7454 132.478C89.5679 141.708 94.3093 150.978 98.8104 160.347C101.828 166.628 104.906 172.964 107.195 179.511C107.52 180.44 107.827 181.377 108.063 182.329C108.247 183.067 108.336 183.39 108.334 184.077C108.334 184.163 108.307 184.478 108.332 184.233C108.327 184.278 108.315 184.329 108.3 184.372C108.255 184.508 108.333 184.456 108.32 184.354C108.338 184.49 108.202 184.432 108.307 184.392C108.356 184.373 108.429 184.32 108.421 184.323C108.635 184.266 108.375 184.315 108.548 184.32C108.408 184.316 108.283 184.229 108.42 184.292C108.317 184.244 108.217 184.193 108.119 184.136C108.063 184.104 108.008 184.067 107.953 184.033C107.795 183.935 107.861 183.973 107.84 183.957C106.079 182.661 104.667 180.884 103.306 179.25C100.507 175.887 97.9068 172.383 95.3443 168.865C94.5236 167.739 93.7093 166.609 92.8991 165.476C92.3913 164.766 91.1447 165.43 91.6566 166.145Z" fill="#EA5C74"/>
<path d="M42.085 105.173C38.1205 101.583 35.2054 97.1139 33.1787 92.3625C30.9422 87.1191 29.7409 81.5521 28.9959 75.9755C28.5537 72.6659 28.2597 69.3415 27.9803 66.0174C27.9092 65.1714 26.4698 65.1643 26.5415 66.0174C27.0484 72.0496 27.6053 78.1051 28.9935 84.0292C30.2279 89.2972 32.1597 94.4756 35.1612 99.1197C36.8052 101.663 38.7752 104.035 41.0676 106.111C41.7289 106.71 42.7471 105.772 42.085 105.173Z" fill="#EA5C74"/>
<path d="M30.7132 61.3674C31.8847 65.016 32.9355 68.6967 33.8641 72.4043C34.0724 73.2361 35.46 72.884 35.2515 72.0515C34.3228 68.3439 33.2721 64.6632 32.1006 61.0146C31.8383 60.1975 30.4493 60.5453 30.7132 61.3674Z" fill="#EA5C74"/>
<path d="M35.8725 56.7991C36.874 61.5523 38.4807 66.1754 40.6301 70.5922C40.7892 70.9192 41.3046 70.9974 41.6144 70.8303C41.9792 70.6334 42.0322 70.2506 41.8725 69.9223C39.7757 65.6137 38.2365 61.0814 37.2599 56.4462C37.0834 55.6087 35.6964 55.9633 35.8725 56.7991Z" fill="#EA5C74"/>
<path d="M42.7834 55.8035C43.5484 59.8074 44.8631 63.6966 46.6657 67.4056C46.8247 67.7326 47.3403 67.8107 47.65 67.6436C48.0149 67.4467 48.0676 67.064 47.9081 66.7357C46.1584 63.1358 44.913 59.335 44.1709 55.4507C44.1034 55.0975 43.6352 54.8987 43.2859 54.9872C42.8819 55.0896 42.7158 55.4493 42.7834 55.8035Z" fill="#EA5C74"/>
<path d="M49.1508 57.3545C52.2241 63.4798 55.2986 69.6046 58.3707 75.7304C61.143 81.2585 63.9896 87.0493 63.9748 93.2619C63.9673 96.4178 63.2077 99.5716 61.3965 102.274C60.9083 103.003 62.1524 103.67 62.6388 102.944C66.1023 97.7757 65.9295 91.3236 64.1943 85.6546C63.2409 82.5397 61.8452 79.5571 60.3903 76.6181C58.8545 73.5156 57.2877 70.4259 55.7347 67.3307C53.9542 63.782 52.1737 60.2333 50.3931 56.6846C50.23 56.3593 49.7214 56.2779 49.4089 56.4465C49.0471 56.6417 48.987 57.028 49.1508 57.3545Z" fill="#EA5C74"/>
<path d="M53.0511 101.852C49.602 98.6734 48.1527 93.844 49.1274 89.4561C49.4045 88.2089 49.8665 87.0108 50.5254 85.8919C50.7002 85.5951 50.6258 85.1452 50.2673 84.984C48.3081 84.1035 46.3156 83.1117 44.5829 81.8834C43.9484 81.4336 43.2453 80.8148 43.2595 80.0187C43.2727 79.2747 43.8976 78.637 44.5673 78.2917C45.4558 77.8337 46.5439 77.8262 47.5315 77.8877C48.4438 77.9446 49.3529 78.0669 50.2505 78.2262C52.0138 78.539 53.7635 79.0166 55.3656 79.774C57.1021 80.595 58.6487 81.7313 59.7216 83.2493C60.2253 83.9621 61.4716 83.2977 60.9639 82.5795C58.6655 79.3274 54.646 77.6582 50.633 76.9464C48.4874 76.5659 45.8503 76.11 43.8412 77.1458C42.9566 77.6018 42.2155 78.3782 41.9369 79.2862C41.626 80.2991 41.9944 81.2929 42.7092 82.0761C43.5106 82.9542 44.6646 83.5707 45.7073 84.173C46.9462 84.8887 48.2271 85.5395 49.5412 86.13L49.2831 85.2221C46.7138 89.5854 46.8303 95.0557 49.3346 99.4219C50.0446 100.66 50.9598 101.801 52.0338 102.79C52.6897 103.395 53.7073 102.456 53.0511 101.852Z" fill="#EA5C74"/>
<path d="M140.822 155.154C138.639 163.108 136.457 171.061 134.274 179.015C133.656 181.269 133.037 183.523 132.419 185.777C132.191 186.605 133.579 186.958 133.806 186.129C135.989 178.176 138.171 170.222 140.354 162.269C140.972 160.015 141.591 157.761 142.209 155.507C142.437 154.679 141.049 154.325 140.822 155.154Z" fill="#231F20"/>
<path d="M122.374 239.645C127.689 232.676 133.005 225.706 138.253 218.693C143.478 211.709 148.636 204.683 153.657 197.573C158.69 190.448 163.578 183.237 168.442 176.013C173.202 168.944 177.982 161.884 182.597 154.733C187.182 147.627 191.595 140.42 195.597 133.019C196.103 132.082 196.603 131.141 197.096 130.198C197.497 129.433 196.257 128.759 195.854 129.529C191.94 137.01 187.589 144.287 183.03 151.449C178.478 158.601 173.724 165.643 168.984 172.691C164.125 179.918 159.255 187.14 154.255 194.285C149.266 201.416 144.135 208.461 138.926 215.457C133.718 222.452 128.434 229.399 123.141 236.34C122.472 237.218 121.802 238.097 121.131 238.975C120.598 239.675 121.845 240.339 122.374 239.645Z" fill="#231F20"/>
<path d="M211.655 100.789C250.397 129.256 291.981 164.254 314.995 204.711C317.193 208.574 319.288 212.745 318.958 217.097C318.605 221.762 315.49 225.891 311.828 229.125C303.978 236.06 292.56 239.976 281.961 237.753C270.004 235.244 261.31 225.81 254.764 216.244C244.596 201.387 237.357 184.83 233.507 167.623" fill="#EA5B74"/>
<path d="M211.146 101.259C218.922 106.973 226.605 112.796 234.14 118.779C241.877 124.922 249.46 131.233 256.817 137.762C264.178 144.294 271.314 151.046 278.122 158.071C284.886 165.052 291.33 172.303 297.295 179.881C303.102 187.259 308.462 194.946 313.171 202.965C315.648 207.182 318.483 211.772 318.261 216.728C318.06 221.197 315.159 225.132 311.83 228.195C305.205 234.292 295.792 238.196 286.342 237.665C276.914 237.135 269.013 231.843 262.983 225.479C259.865 222.188 257.173 218.581 254.681 214.87C251.881 210.702 249.311 206.404 246.979 201.997C242.304 193.162 238.604 183.891 235.943 174.372C235.301 172.077 234.722 169.767 234.201 167.447C234.013 166.611 232.626 166.965 232.813 167.8C235.021 177.623 238.32 187.22 242.63 196.43C246.763 205.264 251.758 213.946 257.921 221.727C263.387 228.629 270.329 235.09 279.35 237.779C288.519 240.512 298.578 238.526 306.554 233.794C310.582 231.405 314.319 228.303 316.884 224.546C318.147 222.696 319.116 220.63 319.501 218.464C319.924 216.082 319.641 213.673 318.901 211.367C318.118 208.927 316.894 206.624 315.617 204.376C314.464 202.349 313.268 200.344 312.034 198.358C309.539 194.346 306.885 190.418 304.1 186.571C298.408 178.712 292.173 171.193 285.572 163.967C278.812 156.567 271.663 149.474 264.25 142.629C256.86 135.805 249.205 129.227 241.371 122.839C233.696 116.581 225.849 110.506 217.888 104.56C215.986 103.14 214.078 101.727 212.164 100.32C211.447 99.793 210.422 100.726 211.146 101.259Z" fill="#EA5C74"/>
<path d="M212.58 215.789C228.621 215.789 241.625 203.793 241.625 188.997C241.625 174.2 228.621 162.205 212.58 162.205C196.538 162.205 183.534 174.2 183.534 188.997C183.534 203.793 196.538 215.789 212.58 215.789Z" fill="#48A8E2"/>
<path d="M240.906 188.997C240.894 194.424 239.062 199.735 235.654 204.161C232.363 208.433 227.635 211.763 222.293 213.551C216.721 215.415 210.567 215.63 204.861 214.143C199.331 212.703 194.375 209.688 190.712 205.61C187.023 201.504 184.764 196.334 184.335 191.016C183.896 185.587 185.284 180.12 188.345 175.461C191.3 170.966 195.714 167.364 200.898 165.183C206.277 162.918 212.453 162.296 218.242 163.389C223.877 164.452 229.069 167.103 233.047 170.933C237.037 174.775 239.674 179.703 240.574 184.957C240.803 186.292 240.903 187.645 240.906 188.997C240.908 189.85 242.347 189.852 242.345 188.997C242.332 183.318 240.419 177.699 236.83 173.077C233.333 168.575 228.423 165.11 222.785 163.2C216.94 161.219 210.41 161.013 204.423 162.585C198.657 164.098 193.429 167.254 189.622 171.526C185.742 175.879 183.385 181.246 182.905 186.866C182.419 192.565 183.909 198.363 187.133 203.247C190.226 207.932 194.852 211.741 200.276 214C205.988 216.379 212.424 217.042 218.567 215.895C224.467 214.793 229.95 211.975 234.104 207.96C238.26 203.943 241.064 198.773 241.98 193.28C242.216 191.862 242.341 190.432 242.345 188.997C242.347 188.143 240.908 188.141 240.906 188.997Z" fill="#45A8E5"/>
<path d="M227.368 131.084C232.992 139.75 238.616 148.417 244.24 157.083C249.834 165.704 255.427 174.325 261.021 182.946C264.175 187.806 267.329 192.667 270.484 197.528C270.959 198.26 272.203 197.593 271.726 196.858C266.102 188.191 260.478 179.525 254.855 170.858C249.261 162.237 243.667 153.617 238.073 144.996C234.919 140.135 231.765 135.275 228.611 130.414C228.136 129.682 226.891 130.348 227.368 131.084Z" fill="#231F20"/>
<path d="M304.228 235.28C297.169 238.008 290.001 240.493 282.74 242.725C275.479 244.956 268.127 246.935 260.705 248.657C253.283 250.379 245.791 251.844 238.25 253.048C234.494 253.647 230.727 254.183 226.949 254.651C225.026 254.889 223.1 255.109 221.172 255.313C219.645 255.474 218.025 255.819 216.56 255.221C215.353 254.729 214.405 253.749 214.014 252.586C213.772 251.866 213.718 251.095 213.587 250.353C213.442 249.534 213.277 248.717 213.094 247.904C212.352 244.617 211.303 241.392 210.037 238.246C207.474 231.877 204.058 225.831 200.354 219.97C199.425 218.5 198.476 217.04 197.516 215.587C197.038 214.863 196.534 214.151 196.072 213.418C195.78 212.957 195.65 212.446 195.768 211.917C195.875 211.431 196.173 210.976 196.602 210.674C197.19 210.261 197.876 210.261 198.582 210.215C200.521 210.089 202.46 209.947 204.397 209.79C212.175 209.159 219.929 208.277 227.641 207.151C235.358 206.026 243.032 204.652 250.646 203.034C258.259 201.416 265.812 199.553 273.284 197.449C275.111 196.935 276.933 196.406 278.75 195.863C279.627 195.602 279.252 194.32 278.367 194.584C270.769 196.853 263.084 198.874 255.33 200.639C247.609 202.396 239.821 203.901 231.986 205.15C224.11 206.405 216.187 207.4 208.234 208.131C206.265 208.312 204.294 208.477 202.321 208.625C201.317 208.701 200.313 208.773 199.309 208.84C198.471 208.896 197.545 208.856 196.745 209.122C195.506 209.533 194.566 210.534 194.346 211.738C194.068 213.26 195.046 214.407 195.862 215.636C199.806 221.576 203.586 227.633 206.633 234.015C208.132 237.157 209.438 240.383 210.471 243.683C210.98 245.306 211.421 246.948 211.784 248.605C211.968 249.448 212.133 250.296 212.275 251.146C212.4 251.887 212.474 252.626 212.777 253.328C213.303 254.545 214.258 255.589 215.512 256.218C216.942 256.936 218.382 256.926 219.955 256.766C223.839 256.371 227.715 255.906 231.58 255.375C239.318 254.312 247.012 252.973 254.638 251.365C262.231 249.764 269.758 247.895 277.197 245.763C284.668 243.623 292.05 241.217 299.32 238.552C301.09 237.903 302.854 237.238 304.61 236.559C304.971 236.42 305.221 236.122 305.113 235.743C305.024 235.43 304.586 235.141 304.228 235.28Z" fill="#231F20"/>
<path d="M197.097 215.216C194.372 213.983 191.368 213.565 188.362 213.439C185.265 213.309 182.113 213.303 179.02 213.495C177.184 213.609 175.35 213.837 173.568 214.27C172.674 214.487 173.053 215.768 173.951 215.55C176.95 214.822 180.053 214.722 183.138 214.71C186.021 214.699 188.956 214.634 191.809 215.074C193.383 215.316 194.934 215.712 196.371 216.362C197.199 216.736 197.929 215.592 197.097 215.216Z" fill="#231F20"/>
<path d="M166.572 226.989C170.489 224.888 174.789 223.473 179.26 222.796C179.644 222.738 179.858 222.299 179.763 221.98C179.651 221.604 179.263 221.458 178.878 221.517C174.292 222.211 169.863 223.688 165.846 225.843C165.046 226.272 165.769 227.42 166.572 226.989Z" fill="#231F20"/>
<path d="M165.043 234.616C167.834 233.073 170.839 231.918 173.991 231.173C174.887 230.962 174.507 229.681 173.608 229.894C170.344 230.664 167.207 231.872 164.317 233.47C163.524 233.908 164.246 235.056 165.043 234.616Z" fill="#231F20"/>
<path d="M167.008 240.642C169.989 238.622 173.274 237.006 176.764 235.875C177.632 235.594 177.258 234.311 176.381 234.596C172.773 235.765 169.365 237.408 166.282 239.496C165.969 239.708 165.813 240.072 166.024 240.404C166.204 240.688 166.693 240.855 167.008 240.642Z" fill="#231F20"/>
<path d="M171.647 244.897C173.872 243.352 176.37 242.195 179.049 241.49C179.938 241.256 179.56 239.976 178.666 240.21C175.876 240.944 173.239 242.142 170.92 243.751C170.61 243.966 170.45 244.324 170.662 244.659C170.841 244.941 171.334 245.114 171.647 244.897Z" fill="#231F20"/>
<path d="M180.359 248.239C188.147 246.331 195.64 243.385 202.522 239.518C204.464 238.426 206.355 237.26 208.195 236.027C208.508 235.816 208.663 235.45 208.453 235.119C208.272 234.833 207.784 234.669 207.468 234.881C201.03 239.2 193.926 242.672 186.42 245.123C184.3 245.815 182.15 246.427 179.977 246.959C179.083 247.178 179.462 248.459 180.359 248.239Z" fill="#231F20"/>
<path d="M196.462 56.7748C194.715 50.0052 194.213 42.9637 194.983 36.0411C195.074 35.2208 195.193 34.3744 195.652 33.6667C196.341 32.604 197.703 32.0367 199.04 31.9225C200.376 31.8082 200.391 31.6247 201.701 31.8958C202.137 31.9858 202.599 32.0899 202.905 32.3897C203.155 32.6356 203.26 32.9773 203.322 33.3097C203.647 35.0379 203.045 36.787 202.45 38.453C200.298 44.4886 198.615 50.7393 196.462 56.7748Z" fill="#231F20"/>
<path d="M197.156 56.5984C196.231 52.9939 195.654 49.322 195.444 45.6225C195.338 43.7574 195.323 41.888 195.4 40.0217C195.437 39.1014 195.497 38.1818 195.579 37.2639C195.655 36.4191 195.695 35.5418 195.946 34.722C196.417 33.1811 197.929 32.7212 199.484 32.541C200.107 32.4688 200.579 32.3655 201.208 32.4771C201.549 32.5376 202.069 32.5796 202.341 32.8048C202.6 33.0192 202.635 33.4589 202.667 33.7545C202.857 35.5635 202.087 37.325 201.497 39.0137C200.867 40.8144 200.278 42.6268 199.702 44.4427C198.416 48.5015 197.199 52.5799 195.769 56.5984C195.479 57.4118 196.868 57.7603 197.156 56.9512C198.525 53.1055 199.699 49.2049 200.924 45.3191C201.536 43.3776 202.162 41.4394 202.832 39.5142C203.476 37.6661 204.306 35.7337 204.105 33.7545C204.015 32.8659 203.775 31.97 202.838 31.5393C202.131 31.2143 201.169 31.0458 200.381 31.1011C198.726 31.2169 196.955 31.4533 195.705 32.5529C194.24 33.8414 194.251 35.9148 194.108 37.6465C193.943 39.6363 193.883 41.6333 193.927 43.6284C194.025 48.1123 194.649 52.5875 195.769 56.9513C195.982 57.782 197.37 57.4303 197.156 56.5984Z" fill="#231F20"/>
<path d="M228.397 59.1957C228.949 51.4876 225.767 43.7768 226.925 36.1262C227.089 35.0469 227.497 33.8017 228.614 33.4473C229.326 33.2215 230.103 33.4426 230.817 33.6631C232.298 34.1206 233.892 34.657 234.733 35.8704C235.595 37.1117 235.426 38.7204 235.11 40.165C233.686 46.664 229.935 52.5827 228.568 59.0921" fill="#231F20"/>
<path d="M229.117 59.1957C229.383 55.3101 228.732 51.4484 228.15 47.6119C227.582 43.8644 227.013 39.972 227.635 36.1977C227.735 35.5956 227.881 34.905 228.318 34.4246C228.884 33.8008 229.755 34.0412 230.482 34.259C231.959 34.702 233.813 35.2563 234.404 36.7354C235.033 38.3086 234.412 40.1927 233.975 41.7412C233.47 43.5311 232.817 45.2819 232.122 47.0154C230.55 50.9324 228.751 54.7985 227.875 58.9157C227.697 59.75 229.084 60.1072 229.262 59.2685C230.092 55.3657 231.753 51.685 233.263 47.9772C234.022 46.1114 234.746 44.2298 235.303 42.3027C235.81 40.5478 236.405 38.5593 235.911 36.7471C235.419 34.9434 233.778 33.9706 232.002 33.3465C231.108 33.0322 230.095 32.637 229.122 32.6942C228.181 32.7494 227.415 33.2147 226.927 33.9503C226.463 34.6514 226.298 35.4726 226.184 36.2743C226.044 37.2575 225.971 38.2476 225.954 39.239C225.919 41.2767 226.114 43.3111 226.382 45.3318C226.994 49.9352 227.997 54.5359 227.678 59.1957C227.62 60.0486 229.059 60.0453 229.117 59.1957Z" fill="#231F20"/>
<path d="M202.008 109.687C203.036 112.546 206.051 114.25 209.08 114.955C212.635 115.783 216.651 115.532 219.714 113.537C221.243 112.54 222.424 111.227 223.151 109.634C223.301 109.303 222.989 108.904 222.648 108.817C222.233 108.712 221.915 108.949 221.763 109.281C220.636 111.754 217.971 113.363 215.193 113.879C212.216 114.433 208.785 113.916 206.202 112.419C204.941 111.689 203.871 110.656 203.396 109.334C203.106 108.527 201.716 108.873 202.008 109.687Z" fill="#231F20"/>
<path d="M198.951 58.0135C199.323 56.0896 198.79 54.0316 197.517 52.4699C196.954 51.7797 196.198 51.1587 195.275 51.0157C193.661 50.7659 192.156 52.1526 191.917 53.6458C191.679 55.139 192.394 56.6259 193.298 57.884C194.407 59.4279 195.829 60.7799 197.468 61.8492C197.6 61.9354 197.86 61.963 197.853 61.814" fill="#EA5B74"/>
<path d="M199.645 58.19C199.976 56.3745 199.662 54.5084 198.678 52.8974C197.771 51.4128 196.14 49.9602 194.138 50.4101C192.371 50.8071 191.228 52.4586 191.155 54.0654C191.067 56.0347 192.291 57.8544 193.564 59.3413C194.262 60.1569 195.048 60.907 195.912 61.5744C196.303 61.8757 196.726 62.243 197.18 62.4599C197.699 62.7079 198.39 62.5596 198.546 61.9904C198.774 61.1622 197.386 60.8089 197.159 61.6376L197.142 61.698L197.473 61.3014C197.898 61.0123 197.902 61.4161 197.712 61.1976C197.664 61.1428 197.529 61.0746 197.475 61.0371C197.328 60.9353 197.185 60.83 197.043 60.7225C196.74 60.493 196.447 60.2534 196.163 60.0044C195.595 59.5069 195.063 58.972 194.581 58.4028C193.656 57.3109 192.716 55.973 192.604 54.5531C192.515 53.4312 193.06 52.159 194.294 51.7512C195.649 51.3035 196.752 52.4932 197.365 53.4545C198.198 54.7604 198.531 56.3402 198.257 57.8371C198.193 58.1901 198.358 58.5516 198.76 58.6534C199.105 58.7408 199.58 58.5453 199.645 58.19Z" fill="#EA5C74"/>
<path d="M226.463 56.7212C226.827 55.5936 227.767 54.7075 228.745 53.9532C229.844 53.1062 231.279 52.3237 232.636 52.7469C233.984 53.1672 234.635 54.6773 234.419 55.9743C234.204 57.2714 233.333 58.3873 232.437 59.4067C231.568 60.3954 230.637 61.3579 229.495 62.0728C228.354 62.7877 226.973 63.2416 225.6 63.1159C225.474 63.1043 225.323 63.0964 225.244 63.1881C225.165 63.2797 225.318 63.4534 225.397 63.361" fill="#EA5B74"/>
<path d="M227.157 56.8976C227.818 54.9713 232.621 51.2504 233.639 54.7612C234.063 56.2221 233.053 57.6312 232.113 58.7252C231.001 60.0207 229.761 61.3382 228.101 62.0412C227.668 62.2245 227.198 62.3592 226.727 62.4281C226.281 62.4934 225.848 62.425 225.404 62.4497C224.846 62.4807 224.38 62.9287 224.538 63.459C224.688 63.9654 225.271 64.1738 225.76 63.9339C226.577 63.5325 225.851 62.3864 225.034 62.788L224.98 62.8142L225.534 62.7473L225.477 62.7265L225.795 62.8971L225.75 62.8458L225.935 63.1386L225.916 63.0736V63.4264L225.938 63.3644C225.876 63.462 225.814 63.5596 225.753 63.6572L225.824 63.6056L225.507 63.7763C225.635 63.7427 225.895 63.7998 226.042 63.8002C226.262 63.8008 226.481 63.7856 226.701 63.7613C227.206 63.7052 227.698 63.6035 228.176 63.4389C229.122 63.113 229.963 62.6269 230.736 62.0311C231.482 61.4559 232.134 60.7856 232.752 60.095C233.356 59.4194 233.959 58.7248 234.412 57.9519C235.24 56.5406 235.525 54.7912 234.542 53.3736C234.11 52.7513 233.47 52.2672 232.691 52.0686C231.766 51.8326 230.813 52.0374 229.967 52.4082C229.017 52.8242 228.16 53.4842 227.42 54.1653C226.684 54.8422 226.085 55.6249 225.77 56.5447C225.49 57.3609 226.878 57.7103 227.157 56.8976Z" fill="#EA5C74"/>
<path d="M194.812 36.1316C193.941 37.2286 192.539 38.0057 191.065 38.0002C189.591 37.9946 188.113 37.1097 187.692 35.8069C187.271 34.5039 188.116 32.9153 189.545 32.5803C188.166 32.9717 186.571 32.2281 185.946 31.0285C185.322 29.8289 185.619 28.3161 186.53 27.2849C187.442 26.2536 188.888 25.6894 190.329 25.6297C188.839 25.8967 187.437 24.4714 187.507 23.0732C187.577 21.675 188.755 20.4892 190.129 19.8938C191.502 19.2984 193.053 19.1809 194.566 19.0724C193.541 18.4321 192.401 17.6011 192.418 16.4591C192.44 14.9432 194.414 14.1835 196.046 14.0049C197.755 13.8179 199.491 13.8408 201.193 14.0728C200.031 12.9673 200.219 11.016 201.356 9.88848C202.493 8.761 204.324 8.39644 205.971 8.64801C207.617 8.89957 209.111 9.68708 210.473 10.5775C211.834 11.4678 213.109 12.4764 214.545 13.2625C213.968 11.9851 214.231 10.4197 215.199 9.36284C216.167 8.30592 217.796 7.80545 219.258 8.11604C220.423 8.3636 221.414 9.06656 222.256 9.84867C225.014 12.4081 226.554 16.0473 226.404 19.6532C228.063 18.6158 230.257 18.6692 232.215 19.0645C234.122 19.4496 235.961 20.1215 237.636 21.0458C239.079 21.8418 240.471 22.9153 240.969 24.3966C241.467 25.878 240.695 27.7915 239.06 28.1533C241.047 27.9925 242.461 29.9195 243.024 31.6844C243.294 32.5305 243.477 33.4432 243.2 34.2873C242.923 35.1315 242.06 35.8668 241.108 35.7858C242.021 37.1442 242.436 38.9232 241.64 40.3432C240.844 41.7631 238.553 42.4348 237.279 41.3511C235.894 42.3808 234.384 43.4573 232.608 43.5526C230.832 43.648 228.877 42.2222 229.286 40.6255C228.385 40.9692 227.646 39.8888 227.412 39.016C226.631 36.111 226.457 33.0682 226.904 30.1038C226.042 31.3011 224.544 31.952 223.101 32.4927C219.417 33.8723 215.584 34.9123 211.677 35.5918C209.268 36.0108 206.834 36.2928 204.401 36.5661C203.133 36.7084 201.777 36.8351 200.64 36.2986C199.503 35.762 198.805 34.2833 199.604 33.3643" fill="#231F20"/>
<path d="M194.19 35.7967C193.059 37.1838 190.819 37.9191 189.224 36.7332C188.592 36.2633 188.198 35.5525 188.327 34.7957C188.449 34.0782 188.962 33.421 189.736 33.2201L189.353 31.9404C188.588 32.1393 187.763 31.9288 187.174 31.4388C186.512 30.8866 186.247 30.0839 186.356 29.2731C186.601 27.4617 188.482 26.39 190.329 26.2932C190.265 25.8588 190.201 25.4243 190.138 24.9898C189.373 25.1044 188.676 24.4928 188.392 23.8948C188.038 23.1504 188.301 22.3337 188.798 21.7029C190.098 20.0543 192.551 19.8811 194.566 19.736C195.286 19.6841 195.534 18.8794 194.929 18.4994C194.233 18.0616 193.25 17.4634 193.14 16.6161C193.049 15.9175 193.678 15.4403 194.282 15.152C195.131 14.7464 196.101 14.6415 197.041 14.5836C198.36 14.5023 199.693 14.5397 201.002 14.7127C201.687 14.8033 202.228 14.1274 201.702 13.6036C201.05 12.9543 201 11.9966 201.317 11.1942C201.673 10.292 202.564 9.69086 203.537 9.42417C206.041 8.73749 208.468 10.0457 210.427 11.3613C211.671 12.1968 212.86 13.1029 214.182 13.8355C214.679 14.1115 215.477 13.6423 215.238 13.0862C214.745 11.9371 214.924 10.5658 215.88 9.65648C216.806 8.77511 218.224 8.47407 219.478 8.86415C220.853 9.2915 221.979 10.4298 222.84 11.4615C223.748 12.5494 224.465 13.7873 224.945 15.0861C225.491 16.5608 225.74 18.0963 225.685 19.6533C225.667 20.1416 226.315 20.5001 226.767 20.2263C229.136 18.792 232.394 19.606 234.821 20.4929C236.13 20.9713 237.469 21.6013 238.557 22.4347C239.437 23.1088 240.325 24.0401 240.393 25.1472C240.454 26.1229 239.976 27.2428 238.869 27.5135C238.103 27.7008 238.234 28.8669 239.06 28.817C240.601 28.7239 241.611 30.0957 242.114 31.2756C242.447 32.0563 242.741 32.984 242.582 33.8273C242.454 34.505 241.909 35.1611 241.108 35.1223C240.561 35.0959 240.213 35.7054 240.486 36.1208C241.267 37.3087 241.837 39.1303 240.79 40.3472C240.133 41.1112 238.675 41.5993 237.788 40.8819C237.472 40.6261 237.091 40.6441 236.77 40.8819C235.525 41.8065 234.016 42.953 232.317 42.8909C231.223 42.8509 229.718 41.9658 229.979 40.802C230.082 40.3439 229.648 39.8066 229.095 39.9857C228.581 40.152 228.245 39.2958 228.135 38.9412C227.849 38.0204 227.677 37.0485 227.556 36.0984C227.311 34.1706 227.315 32.2047 227.598 30.2803C227.705 29.5525 226.771 29.1134 226.283 29.769C225.288 31.1051 223.413 31.6854 221.846 32.2404C219.863 32.9426 217.839 33.5472 215.787 34.0512C213.731 34.5558 211.648 34.9532 209.548 35.2612C207.46 35.5675 205.327 35.8944 203.215 36.0106C202.3 36.061 201.197 36.0378 200.512 35.3913C200.024 34.931 199.782 34.2481 200.225 33.6993C200.458 33.4118 200.276 32.9581 199.967 32.7914C199.6 32.5934 199.216 32.7412 198.983 33.0294C197.754 34.5507 199.186 36.5537 200.851 37.0987C201.866 37.4311 202.98 37.3786 204.033 37.2696C205.239 37.1448 206.444 36.9993 207.646 36.8489C212.418 36.2521 217.097 35.2816 221.617 33.7331C223.763 32.9978 226.171 32.2582 227.525 30.4388C227.087 30.2684 226.649 30.0979 226.21 29.9275C225.862 32.295 225.868 34.665 226.253 37.0289C226.42 38.0555 226.573 39.1918 227.112 40.1187C227.569 40.9057 228.459 41.5951 229.477 41.2655C229.182 40.9934 228.887 40.7213 228.592 40.4492C228.176 42.2981 229.879 43.8824 231.777 44.1634C234.087 44.5055 236.1 43.0738 237.788 41.8204H236.771C238.243 43.0117 240.548 42.63 241.785 41.308C243.339 39.647 242.869 37.1849 241.729 35.451L241.108 36.4495C242.334 36.5089 243.373 35.6932 243.808 34.6812C244.292 33.5585 244.009 32.237 243.587 31.1359C242.901 29.345 241.371 27.3503 239.06 27.4899C239.124 27.9243 239.188 28.3588 239.252 28.7933C240.606 28.4622 241.523 27.3344 241.759 26.0914C242.027 24.6821 241.47 23.3768 240.479 22.3098C239.427 21.176 237.951 20.3698 236.506 19.7346C234.906 19.0313 233.192 18.4974 231.435 18.2622C229.593 18.0157 227.639 18.113 226.041 19.0804C226.402 19.2714 226.763 19.4624 227.124 19.6533C227.241 16.379 226.065 13.133 223.884 10.5541C222.81 9.28495 221.439 8.02015 219.725 7.54427C218.105 7.09409 216.293 7.51136 215.047 8.55359C213.614 9.75207 213.144 11.7909 213.851 13.439L214.908 12.6897C212.225 11.2023 210.001 8.94001 206.9 8.15805C204.265 7.49345 200.988 8.22344 199.951 10.7895C199.438 12.0599 199.678 13.5399 200.685 14.5422C200.918 14.1725 201.151 13.8028 201.385 13.4331C199.778 13.2206 198.162 13.1549 196.543 13.2931C195.338 13.3961 194.096 13.6172 193.084 14.2691C192.094 14.9069 191.517 15.8966 191.765 17.0226C192.024 18.2027 193.191 19.009 194.203 19.6455C194.324 19.2333 194.446 18.8211 194.567 18.409C191.862 18.6036 188.586 19.0061 187.234 21.527C186.66 22.5982 186.62 23.8526 187.339 24.8787C188.047 25.8893 189.216 26.4652 190.52 26.2697C191.319 26.15 191.134 24.924 190.329 24.9662C187.627 25.1079 185.109 26.764 184.906 29.3934C184.723 31.7721 187.151 33.8925 189.736 33.2201C190.626 32.9887 190.248 31.7082 189.353 31.9404C188.127 32.2587 187.202 33.2464 186.95 34.3916C186.686 35.5907 187.138 36.8069 188.138 37.6166C189.182 38.4624 190.555 38.8077 191.92 38.5904C193.36 38.3611 194.57 37.5247 195.433 36.4667C195.667 36.1801 195.483 35.7249 195.175 35.5588C194.807 35.3601 194.425 35.5094 194.19 35.7967Z" fill="#231F20"/>
<path d="M195.286 192.82C197.173 192.562 198.781 191.224 199.365 189.567C199.481 189.237 199.229 188.828 198.862 188.751C198.468 188.668 198.102 188.86 197.977 189.214C197.956 189.274 197.857 189.428 197.872 189.484L197.904 189.414C197.89 189.443 197.876 189.473 197.862 189.501C197.844 189.538 197.825 189.573 197.805 189.609C197.717 189.773 197.615 189.931 197.503 190.082C197.478 190.115 197.453 190.147 197.428 190.18C197.412 190.199 197.397 190.218 197.381 190.237C197.436 190.173 197.447 190.159 197.414 190.197C197.352 190.264 197.293 190.332 197.228 190.397C197.094 190.533 196.95 190.661 196.798 190.779C196.768 190.803 196.734 190.838 196.698 190.855C196.845 190.787 196.719 190.841 196.678 190.868C196.602 190.919 196.523 190.969 196.442 191.016C196.275 191.114 196.1 191.203 195.92 191.28C195.876 191.299 195.748 191.376 195.901 191.29C195.866 191.31 195.819 191.32 195.781 191.333C195.692 191.364 195.602 191.392 195.511 191.417C195.311 191.472 195.109 191.512 194.903 191.54C194.53 191.591 194.291 192.044 194.401 192.356C194.533 192.733 194.885 192.875 195.286 192.82Z" fill="#231F20"/>
<path d="M196.042 192.671C199.791 195.883 204.172 198.648 209.15 199.92C213.661 201.072 218.553 200.819 222.767 198.872C225.033 197.824 226.993 196.268 228.39 194.315C228.902 193.6 227.656 192.934 227.148 193.645C224.85 196.858 220.822 198.724 216.747 199.179C212.126 199.695 207.568 198.422 203.598 196.286C201.23 195.012 199.066 193.451 197.06 191.732C196.382 191.151 195.362 192.088 196.042 192.671Z" fill="#231F20"/>
<path d="M226.918 192.202C226.405 193.374 227.05 194.877 228.263 195.443C228.598 195.599 229.058 195.535 229.247 195.205C229.42 194.903 229.347 194.464 228.989 194.297C228.935 194.272 228.883 194.246 228.832 194.216C228.801 194.199 228.772 194.18 228.742 194.162C228.644 194.103 228.852 194.248 228.788 194.196C228.693 194.12 228.601 194.044 228.518 193.956C228.503 193.939 228.489 193.92 228.472 193.905C228.609 194.029 228.537 193.984 228.499 193.934C228.464 193.889 228.432 193.842 228.402 193.795C228.371 193.747 228.343 193.698 228.317 193.648C228.291 193.601 228.261 193.497 228.33 193.686C228.321 193.66 228.308 193.634 228.298 193.608C228.256 193.504 228.224 193.398 228.201 193.289C228.195 193.262 228.192 193.234 228.185 193.207C228.237 193.396 228.199 193.315 228.193 193.252C228.188 193.198 228.185 193.143 228.184 193.087C228.184 193.032 228.186 192.977 228.191 192.923C228.193 192.9 228.208 192.785 228.189 192.913C228.171 193.036 228.187 192.932 228.193 192.903C228.217 192.783 228.256 192.668 228.305 192.555C228.37 192.406 228.317 192.176 228.233 192.043C228.145 191.906 227.974 191.774 227.803 191.738C227.619 191.7 227.412 191.708 227.248 191.805C227.081 191.905 226.992 192.033 226.918 192.202Z" fill="#231F20"/>
<path d="M203.771 180.417C202.922 181.59 202.654 183.099 203.029 184.465C203.133 184.843 203.298 185.221 203.667 185.443C204.081 185.691 204.623 185.621 204.978 185.317C205.563 184.815 205.538 183.911 205.546 183.234C205.557 182.342 205.432 181.444 205.194 180.58C205.101 180.243 204.673 180.007 204.309 180.116C203.932 180.229 203.707 180.572 203.806 180.932C204.017 181.696 204.11 182.359 204.108 183.156C204.108 183.339 204.101 183.521 204.089 183.703C204.083 183.808 204.074 183.912 204.063 184.015C204.058 184.067 204.052 184.119 204.046 184.171C204.058 184.105 204.057 184.106 204.044 184.173C204.03 184.225 204.014 184.276 203.999 184.328C203.971 184.399 203.973 184.395 204.005 184.316C203.989 184.347 203.97 184.376 203.949 184.404C204.01 184.336 204.014 184.327 203.961 184.378C204.037 184.303 204.135 184.267 204.256 184.27C204.372 184.276 204.409 184.335 204.498 184.375C204.531 184.414 204.528 184.407 204.49 184.352C204.521 184.427 204.522 184.429 204.493 184.358C204.467 184.276 204.439 184.195 204.416 184.112C204.396 184.036 204.377 183.959 204.361 183.882C204.356 183.858 204.318 183.64 204.335 183.76C204.287 183.426 204.295 183.089 204.327 182.754C204.337 182.673 204.338 182.665 204.329 182.731C204.336 182.686 204.344 182.642 204.353 182.598C204.366 182.532 204.381 182.466 204.397 182.4C204.44 182.226 204.495 182.053 204.56 181.885C204.657 181.637 204.803 181.379 205.014 181.087C205.223 180.798 205.085 180.34 204.756 180.179C204.394 180.003 203.995 180.108 203.771 180.417Z" fill="#231F20"/>
<path d="M220.141 181.037C219.292 182.21 219.024 183.719 219.398 185.084C219.502 185.463 219.668 185.841 220.037 186.063C220.45 186.311 220.993 186.241 221.348 185.936C221.933 185.434 221.908 184.531 221.916 183.854C221.927 182.962 221.802 182.063 221.563 181.199C221.47 180.863 221.043 180.627 220.678 180.736C220.302 180.848 220.076 181.192 220.176 181.552C220.387 182.316 220.48 182.979 220.478 183.776C220.477 183.958 220.471 184.141 220.459 184.323C220.452 184.427 220.443 184.531 220.433 184.635C220.428 184.687 220.422 184.739 220.416 184.791C220.427 184.725 220.427 184.726 220.414 184.793C220.399 184.845 220.384 184.896 220.369 184.947C220.341 185.018 220.343 185.015 220.375 184.936C220.358 184.966 220.34 184.996 220.319 185.024C220.38 184.956 220.383 184.947 220.33 184.998C220.406 184.922 220.505 184.886 220.626 184.89C220.742 184.896 220.778 184.955 220.868 184.994C220.9 185.034 220.898 185.027 220.86 184.972C220.89 185.046 220.891 185.048 220.863 184.977C220.836 184.895 220.809 184.814 220.786 184.731C220.765 184.655 220.747 184.579 220.73 184.502C220.725 184.478 220.687 184.26 220.705 184.38C220.656 184.046 220.664 183.709 220.696 183.374C220.707 183.293 220.707 183.285 220.699 183.35C220.706 183.306 220.714 183.262 220.722 183.218C220.736 183.152 220.75 183.086 220.766 183.02C220.81 182.845 220.864 182.673 220.93 182.504C221.027 182.256 221.172 181.998 221.383 181.707C221.593 181.417 221.455 180.959 221.125 180.799C220.763 180.622 220.365 180.728 220.141 181.037Z" fill="#231F20"/>
<path d="M125.629 68.2057C120.339 65.7663 114.417 64.031 108.438 64.4575C103.302 64.8239 97.9958 66.7856 94.6878 70.5528C93.8395 71.5189 93.1034 72.6898 93.2368 73.9804C93.3526 75.102 94.045 76.0443 94.9947 76.7236C96.7763 77.9979 99.5474 78.5876 101.639 77.6235C102.683 77.1421 103.409 76.1321 103.375 75.0406C103.339 73.9022 102.569 72.8883 101.655 72.1749C99.5098 70.5001 96.3745 70.0045 93.6413 69.9819C87.6564 69.9322 82.1629 72.4931 77.3364 75.5358C76.7417 75.9108 76.1535 76.2944 75.569 76.6827C75.2541 76.8918 75.1015 77.2604 75.3109 77.5906C75.4928 77.8775 75.9782 78.0392 76.2952 77.8287C80.5603 74.9959 85.179 72.3462 90.4478 71.5371C93.021 71.1419 95.7115 71.2275 98.2042 71.9651C99.2994 72.2891 100.321 72.7503 101.119 73.5333C101.73 74.1327 102.218 75.0031 101.737 75.7976C101.308 76.5051 100.349 76.7309 99.531 76.7571C98.5642 76.7881 97.5866 76.5792 96.7256 76.1727C95.8965 75.7812 95.0532 75.18 94.7664 74.3256C94.4316 73.3286 94.978 72.3555 95.6297 71.5788C98.4646 68.2001 103.173 66.3146 107.686 65.8503C112.954 65.3084 118.261 66.5506 123.043 68.535C123.669 68.7949 124.289 69.0684 124.903 69.3517C125.729 69.7325 126.458 68.5881 125.629 68.2057Z" fill="#45A8E5"/>
<path d="M75.8697 72.959C75.1134 74.4585 74.5852 76.0342 74.3331 77.6727C74.2631 78.1278 74.5186 78.4667 75.0268 78.5127C76.8234 78.6753 78.5721 79.1913 80.1496 79.9969C80.9604 80.4109 81.6869 79.2652 80.8758 78.851C79.0641 77.9257 77.0857 77.3718 75.0268 77.1855C75.258 77.4655 75.4893 77.7455 75.7205 78.0255C75.954 76.5078 76.4105 75.0198 77.112 73.6289C77.2758 73.3042 77.2111 72.9137 76.8539 72.721C76.5427 72.5531 76.0343 72.6326 75.8697 72.959Z" fill="#45A8E5"/>
</svg>
