<svg width="20" height="20" viewBox="0 0 20 20" fill="none" xmlns="http://www.w3.org/2000/svg">
<path d="M17.5 6.66667H16.25V4.7619C16.25 2.13333 13.45 0 10 0C6.55 0 3.75 2.13333 3.75 4.7619V6.66667H2.5C1.125 6.66667 0 7.52381 0 8.57143V18.0952C0 19.1429 1.125 20 2.5 20H17.5C18.875 20 20 19.1429 20 18.0952V8.57143C20 7.52381 18.875 6.66667 17.5 6.66667ZM6.25 4.7619C6.25 3.18095 7.925 1.90476 10 1.90476C12.075 1.90476 13.75 3.18095 13.75 4.7619V6.66667H6.25V4.7619ZM17.5 18.0952H2.5V8.57143H17.5V18.0952ZM10 15.2381C11.375 15.2381 12.5 14.381 12.5 13.3333C12.5 12.2857 11.375 11.4286 10 11.4286C8.625 11.4286 7.5 12.2857 7.5 13.3333C7.5 14.381 8.625 15.2381 10 15.2381Z" fill="#4C559D" style="fill:#4C559D;fill:color(display-p3 0.2980 0.3333 0.6157);fill-opacity:1;"/>
</svg>
